<?xml version="1.0" encoding="UTF-8" standalone="no"?>
<!DOCTYPE svg PUBLIC "-//W3C//DTD SVG 1.1//EN"
 "http://www.w3.org/Graphics/SVG/1.1/DTD/svg11.dtd">
<!-- Generated by graphviz version 8.0.5 (20230430.1635)
 -->
<!-- Title: mygraph Pages: 1 -->
<svg width="800pt" height="193pt"
 viewBox="0.00 0.00 799.50 193.00" xmlns="http://www.w3.org/2000/svg" xmlns:xlink="http://www.w3.org/1999/xlink">
<g id="graph0" class="graph" transform="scale(1 1) rotate(0) translate(4 189)">
<title>mygraph</title>
<polygon fill="white" stroke="none" points="-4,4 -4,-189 795.5,-189 795.5,4 -4,4"/>
<!-- //bazel_examples/example3:example3 -->
<g id="node1" class="node">
<title>//bazel_examples/example3:example3</title>
<polygon fill="none" stroke="black" points="475.62,-185 251.12,-185 251.12,-149 475.62,-149 475.62,-185"/>
<text text-anchor="middle" x="363.38" y="-161.95" font-family="Times,serif" font-size="14.00">//bazel_examples/example3:example3</text>
</g>
<!-- //bazel_examples/example3:main.cc -->
<g id="node2" class="node">
<title>//bazel_examples/example3:main.cc</title>
<polygon fill="none" stroke="black" points="214.75,-113 0,-113 0,-77 214.75,-77 214.75,-113"/>
<text text-anchor="middle" x="107.38" y="-89.95" font-family="Times,serif" font-size="14.00">//bazel_examples/example3:main.cc</text>
</g>
<!-- //bazel_examples/example3:example3&#45;&gt;//bazel_examples/example3:main.cc -->
<g id="edge1" class="edge">
<title>//bazel_examples/example3:example3&#45;&gt;//bazel_examples/example3:main.cc</title>
<path fill="none" stroke="black" d="M299.44,-148.52C263.56,-138.71 218.65,-126.43 181.27,-116.21"/>
<polygon fill="black" stroke="black" points="182.51,-112.64 171.94,-113.38 180.67,-119.4 182.51,-112.64"/>
</g>
<!-- //bazel_examples/example3/library2:library2 -->
<g id="node3" class="node">
<title>//bazel_examples/example3/library2:library2</title>
<polygon fill="none" stroke="black" points="493.62,-113 233.12,-113 233.12,-77 493.62,-77 493.62,-113"/>
<text text-anchor="middle" x="363.38" y="-89.95" font-family="Times,serif" font-size="14.00">//bazel_examples/example3/library2:library2</text>
</g>
<!-- //bazel_examples/example3:example3&#45;&gt;//bazel_examples/example3/library2:library2 -->
<g id="edge2" class="edge">
<title>//bazel_examples/example3:example3&#45;&gt;//bazel_examples/example3/library2:library2</title>
<path fill="none" stroke="black" d="M363.38,-148.7C363.38,-141.24 363.38,-132.32 363.38,-123.97"/>
<polygon fill="black" stroke="black" points="366.88,-124.1 363.38,-114.1 359.88,-124.1 366.88,-124.1"/>
</g>
<!-- //bazel_examples/example3/library1:library1 -->
<g id="node4" class="node">
<title>//bazel_examples/example3/library1:library1</title>
<polygon fill="none" stroke="black" points="779.62,-113 519.12,-113 519.12,-77 779.62,-77 779.62,-113"/>
<text text-anchor="middle" x="649.38" y="-89.95" font-family="Times,serif" font-size="14.00">//bazel_examples/example3/library1:library1</text>
</g>
<!-- //bazel_examples/example3:example3&#45;&gt;//bazel_examples/example3/library1:library1 -->
<g id="edge3" class="edge">
<title>//bazel_examples/example3:example3&#45;&gt;//bazel_examples/example3/library1:library1</title>
<path fill="none" stroke="black" d="M434.81,-148.52C475.23,-138.62 525.92,-126.22 567.89,-115.94"/>
<polygon fill="black" stroke="black" points="568.48,-119.16 577.36,-113.38 566.81,-112.36 568.48,-119.16"/>
</g>
<!-- //bazel_examples/example3/library2:library2.h\n//bazel_examples/example3/library2:library2.cc -->
<g id="node6" class="node">
<title>//bazel_examples/example3/library2:library2.h\n//bazel_examples/example3/library2:library2.cc</title>
<polygon fill="none" stroke="black" points="497.5,-41 221.25,-41 221.25,0 497.5,0 497.5,-41"/>
<text text-anchor="middle" x="359.38" y="-23.7" font-family="Times,serif" font-size="14.00">//bazel_examples/example3/library2:library2.h</text>
<text text-anchor="middle" x="359.38" y="-7.2" font-family="Times,serif" font-size="14.00">//bazel_examples/example3/library2:library2.cc</text>
</g>
<!-- //bazel_examples/example3/library2:library2&#45;&gt;//bazel_examples/example3/library2:library2.h\n//bazel_examples/example3/library2:library2.cc -->
<g id="edge5" class="edge">
<title>//bazel_examples/example3/library2:library2&#45;&gt;//bazel_examples/example3/library2:library2.h\n//bazel_examples/example3/library2:library2.cc</title>
<path fill="none" stroke="black" d="M362.43,-76.82C362.02,-69.42 361.53,-60.55 361.06,-52.09"/>
<polygon fill="black" stroke="black" points="364.52,-52.17 360.47,-42.38 357.53,-52.56 364.52,-52.17"/>
</g>
<!-- //bazel_examples/example3/library1:library1.h\n//bazel_examples/example3/library1:library1.cc -->
<g id="node5" class="node">
<title>//bazel_examples/example3/library1:library1.h\n//bazel_examples/example3/library1:library1.cc</title>
<polygon fill="none" stroke="black" points="791.5,-41 515.25,-41 515.25,0 791.5,0 791.5,-41"/>
<text text-anchor="middle" x="653.38" y="-23.7" font-family="Times,serif" font-size="14.00">//bazel_examples/example3/library1:library1.h</text>
<text text-anchor="middle" x="653.38" y="-7.2" font-family="Times,serif" font-size="14.00">//bazel_examples/example3/library1:library1.cc</text>
</g>
<!-- //bazel_examples/example3/library1:library1&#45;&gt;//bazel_examples/example3/library1:library1.h\n//bazel_examples/example3/library1:library1.cc -->
<g id="edge4" class="edge">
<title>//bazel_examples/example3/library1:library1&#45;&gt;//bazel_examples/example3/library1:library1.h\n//bazel_examples/example3/library1:library1.cc</title>
<path fill="none" stroke="black" d="M650.32,-76.82C650.73,-69.42 651.22,-60.55 651.69,-52.09"/>
<polygon fill="black" stroke="black" points="655.22,-52.56 652.28,-42.38 648.23,-52.17 655.22,-52.56"/>
</g>
</g>
</svg>
